<?xml version="1.0" encoding="utf-8"?>
<!-- Generator: Adobe Illustrator 25.3.1, SVG Export Plug-In . SVG Version: 6.00 Build 0)  -->
<svg version="1.1" id="Camada_1" xmlns="http://www.w3.org/2000/svg" xmlns:xlink="http://www.w3.org/1999/xlink" x="0px" y="0px"
	 viewBox="0 0 358 89.93" style="enable-background:new 0 0 358 89.93;" xml:space="preserve">
<style type="text/css">
	.st0{fill:#292929;}
	.st1{fill:#0080F3;}
</style>
<g>
	<g>
		<g>
			<path class="st0" d="M108.54,7.42c0-3.11,1.73-4.67,5.2-4.67c3.47,0,5.2,1.56,5.2,4.67c0,1.48-0.43,2.64-1.3,3.46
				c-0.87,0.83-2.17,1.24-3.9,1.24C110.27,12.12,108.54,10.55,108.54,7.42z M116.01,51.51h-4.57c-1.38,0-2.49-1.12-2.49-2.49V18.97
				c0-1.38,1.12-2.49,2.49-2.49h4.57c1.38,0,2.49,1.12,2.49,2.49v30.04C118.5,50.39,117.39,51.51,116.01,51.51z"/>
		</g>
		<g>
			<path class="st0" d="M149.55,13.97V5.24c0-1.38,1.12-2.49,2.49-2.49h4.6c1.38,0,2.49,1.12,2.49,2.49v43.77
				c0,1.38-1.12,2.49-2.49,2.49h-3.16c-1.01,0-1.93-0.61-2.31-1.55l-1.22-2.99h-0.41c-2.17,3.45-5.48,5.17-9.93,5.17
				c-4.12,0-7.35-1.6-9.7-4.79c-2.35-3.2-3.53-7.62-3.53-13.29c0-5.74,1.2-10.22,3.59-13.43c2.39-3.21,5.69-4.81,9.89-4.81
				c4.41,0,7.35,1.71,9.67,5.14 M142.97,44.52c2.44,0,4.23-0.71,5.37-2.13c1.14-1.42,1.76-3.83,1.86-7.24v-1.03
				c0-3.76-0.58-6.45-1.74-8.08c-1.16-1.63-3.04-2.44-5.66-2.44c-2.13,0-3.79,0.9-4.97,2.71c-1.18,1.81-1.77,4.43-1.77,7.88
				s0.6,6.03,1.79,7.76C139.06,43.66,140.76,44.52,142.97,44.52z"/>
		</g>
		<g>
			<path class="st0" d="M184.99,52.13c-5.64,0-10.05-1.56-13.22-4.67c-3.18-3.11-4.76-7.52-4.76-13.22c0-5.87,1.47-10.41,4.4-13.61
				c2.93-3.21,6.99-4.81,12.17-4.81c4.95,0,8.8,1.41,11.56,4.23c2.76,2.82,4.14,6.72,4.14,11.69v2.64c0,1.1-0.89,1.99-1.99,1.99
				h-20.6c0.1,2.72,0.91,4.84,2.41,6.36c1.5,1.53,3.61,2.29,6.33,2.29c2.11,0,4.1-0.22,5.98-0.66c1.05-0.24,2.12-0.57,3.23-0.98
				c1.29-0.48,2.66,0.5,2.66,1.88v3.12c0,0.8-0.47,1.52-1.2,1.83c-1.32,0.56-2.7,1-4.16,1.31
				C190.05,51.93,187.73,52.13,184.99,52.13z M183.65,22.62c-2.03,0-3.61,0.64-4.76,1.93c-0.7,0.78-1.22,1.76-1.55,2.94
				c-0.36,1.27,0.61,2.52,1.93,2.52h8.82c1.29,0,2.25-1.21,1.94-2.47c-0.3-1.21-0.81-2.21-1.55-3
				C187.28,23.26,185.67,22.62,183.65,22.62z"/>
		</g>
		<g>
			<path class="st0" d="M229.3,51.51l-1.85-4.76h-0.25c-1.61,2.03-3.26,3.43-4.97,4.21c-1.7,0.78-3.92,1.18-6.66,1.18
				c-3.36,0-6.01-0.96-7.94-2.88c-1.93-1.92-2.9-4.66-2.9-8.21c0-3.72,1.3-6.46,3.9-8.23c2.6-1.77,6.52-2.74,11.77-2.93l4.54-0.14
				c0.86-0.03,1.53-0.73,1.53-1.58l0,0c0-3.55-1.82-5.33-5.45-5.33c-2.38,0-5.11,0.61-8.19,1.83c-0.96,0.38-2.05-0.05-2.51-0.98
				l-1.45-2.95c-0.51-1.03-0.03-2.27,1.03-2.72c3.52-1.5,7.35-2.26,11.49-2.26c4.7,0,8.3,1.02,10.81,3.07
				c2.51,2.05,3.76,5.16,3.76,9.34v23.34H229.3z M226.48,37.34c0-1.13-0.93-2.03-2.06-1.99l-1.63,0.06c-2.78,0.08-4.85,0.59-6.2,1.5
				c-1.36,0.92-2.04,2.32-2.04,4.2c0,2.69,1.55,4.04,4.64,4.04c2.21,0,3.98-0.64,5.31-1.91c1.33-1.27,1.99-2.97,1.99-5.08V37.34z"/>
		</g>
		<g>
			<path class="st0" d="M255.37,21.02c2.23-3.47,5.55-5.2,9.93-5.2c4.14,0,7.37,1.61,9.71,4.84c2.34,3.23,3.51,7.65,3.51,13.27
				c0,5.79-1.21,10.27-3.62,13.44c-2.41,3.18-5.7,4.76-9.85,4.76c-4.12,0-7.34-1.49-9.68-4.48h-0.66l-0.96,2.32
				c-0.39,0.93-1.29,1.54-2.3,1.54h-3.14c-1.38,0-2.49-1.12-2.49-2.49V5.24c0-1.38,1.12-2.49,2.49-2.49h4.57
				c1.38,0,2.49,1.12,2.49,2.49v8.85 M262.23,23.46c-2.36,0-4.08,0.73-5.17,2.18c-1.09,1.45-1.65,3.85-1.69,7.19v1.03
				c0,3.76,0.56,6.45,1.68,8.08c1.12,1.63,2.89,2.44,5.31,2.44c1.96,0,3.53-0.9,4.68-2.71c1.16-1.81,1.74-4.43,1.74-7.88
				s-0.58-6.03-1.75-7.76C265.85,24.32,264.26,23.46,262.23,23.46z"/>
		</g>
		<g>
			<path class="st0" d="M318.26,33.93c0,5.7-1.5,10.16-4.51,13.38c-3.01,3.22-7.2,4.83-12.56,4.83c-3.36,0-6.33-0.74-8.9-2.21
				c-2.57-1.47-4.54-3.59-5.92-6.34c-1.38-2.76-2.07-5.97-2.07-9.65c0-5.72,1.49-10.17,4.48-13.35c2.99-3.17,7.19-4.76,12.6-4.76
				c3.36,0,6.33,0.73,8.9,2.19c2.57,1.46,4.54,3.56,5.92,6.3C317.57,27.05,318.26,30.25,318.26,33.93z M294.03,33.93
				c0,3.47,0.57,6.09,1.71,7.86c1.14,1.78,2.99,2.66,5.56,2.66c2.55,0,4.38-0.88,5.5-2.65c1.12-1.76,1.68-4.39,1.68-7.88
				c0-3.47-0.56-6.07-1.69-7.8c-1.13-1.73-2.98-2.6-5.55-2.6c-2.55,0-4.39,0.86-5.51,2.58C294.6,27.83,294.03,30.44,294.03,33.93z"
				/>
		</g>
		<g>
			<path class="st0" d="M332.96,33.06l-8.37-12.73c-1.09-1.66,0.1-3.86,2.08-3.86h5.1c0.7,0,1.34,0.36,1.7,0.96l5.37,8.81
				c0.39,0.64,1.31,0.64,1.7,0l5.42-8.82c0.36-0.59,1.01-0.95,1.7-0.95h5.07c1.99,0,3.18,2.22,2.08,3.87l-8.46,12.71
				c-0.22,0.34-0.22,0.77,0,1.11l8.98,13.46c1.11,1.66-0.08,3.88-2.07,3.88h-5.1c-0.69,0-1.34-0.36-1.7-0.95l-5.93-9.67
				c-0.39-0.63-1.31-0.63-1.7,0l-5.96,9.67c-0.36,0.59-1.01,0.95-1.7,0.95h-5.08c-1.99,0-3.18-2.21-2.08-3.87l8.94-13.47
				C333.18,33.83,333.18,33.4,332.96,33.06z"/>
		</g>
	</g>
	<g>
		<path class="st0" d="M115.97,71.77l-0.29-1.39h-0.07c-0.49,0.61-0.97,1.03-1.46,1.25c-0.48,0.22-1.09,0.33-1.82,0.33
			c-0.97,0-1.73-0.25-2.28-0.75c-0.55-0.5-0.83-1.21-0.83-2.13c0-1.98,1.58-3.01,4.74-3.11l1.66-0.05V65.3c0-0.77-0.17-1.33-0.5-1.7
			c-0.33-0.37-0.86-0.55-1.58-0.55c-0.82,0-1.74,0.25-2.77,0.75l-0.46-1.13c0.48-0.26,1.01-0.47,1.58-0.62s1.15-0.22,1.73-0.22
			c1.17,0,2.03,0.26,2.59,0.78c0.56,0.52,0.84,1.35,0.84,2.49v6.68H115.97z M112.62,70.73c0.92,0,1.65-0.25,2.17-0.76
			s0.79-1.21,0.79-2.12v-0.88l-1.48,0.06c-1.18,0.04-2.03,0.22-2.55,0.55c-0.52,0.32-0.78,0.83-0.78,1.51
			c0,0.54,0.16,0.94,0.49,1.22C111.58,70.59,112.04,70.73,112.62,70.73z"/>
		<path class="st0" d="M124.03,71.95c-1.42,0-2.51-0.44-3.29-1.31c-0.78-0.87-1.17-2.11-1.17-3.7c0-1.64,0.39-2.9,1.18-3.79
			c0.79-0.89,1.91-1.34,3.37-1.34c0.47,0,0.94,0.05,1.41,0.15s0.84,0.22,1.11,0.36l-0.46,1.26c-0.33-0.13-0.68-0.24-1.07-0.33
			c-0.39-0.09-0.73-0.13-1.03-0.13c-1.99,0-2.98,1.27-2.98,3.8c0,1.2,0.24,2.12,0.73,2.77c0.48,0.64,1.2,0.96,2.16,0.96
			c0.82,0,1.65-0.18,2.51-0.53v1.31C125.85,71.78,125.02,71.95,124.03,71.95z"/>
		<path class="st0" d="M132.96,71.95c-1.45,0-2.59-0.44-3.42-1.32c-0.84-0.88-1.25-2.1-1.25-3.67c0-1.58,0.39-2.83,1.17-3.76
			c0.78-0.93,1.82-1.39,3.13-1.39c1.23,0,2.2,0.4,2.91,1.21c0.71,0.81,1.07,1.87,1.07,3.19v0.94h-6.74
			c0.03,1.15,0.32,2.02,0.87,2.62s1.33,0.89,2.33,0.89c1.05,0,2.1-0.22,3.12-0.66v1.32c-0.52,0.23-1.02,0.39-1.49,0.49
			S133.62,71.95,132.96,71.95z M132.55,63.05c-0.79,0-1.41,0.26-1.88,0.77s-0.74,1.22-0.83,2.12h5.12c0-0.93-0.21-1.65-0.62-2.15
			C133.92,63.3,133.33,63.05,132.55,63.05z"/>
		<path class="st0" d="M140.56,71.77h-1.48V57.88h1.48V71.77z"/>
		<path class="st0" d="M147.84,71.95c-1.45,0-2.59-0.44-3.42-1.32c-0.84-0.88-1.25-2.1-1.25-3.67c0-1.58,0.39-2.83,1.17-3.76
			c0.78-0.93,1.82-1.39,3.13-1.39c1.23,0,2.2,0.4,2.91,1.21c0.71,0.81,1.07,1.87,1.07,3.19v0.94h-6.74
			c0.03,1.15,0.32,2.02,0.87,2.62s1.33,0.89,2.33,0.89c1.05,0,2.1-0.22,3.12-0.66v1.32c-0.52,0.23-1.02,0.39-1.49,0.49
			S148.5,71.95,147.84,71.95z M147.44,63.05c-0.79,0-1.41,0.26-1.88,0.77s-0.74,1.22-0.83,2.12h5.12c0-0.93-0.21-1.65-0.62-2.15
			C148.81,63.3,148.21,63.05,147.44,63.05z"/>
		<path class="st0" d="M158.43,61.81c0.43,0,0.82,0.04,1.17,0.11l-0.21,1.37c-0.4-0.09-0.76-0.13-1.07-0.13
			c-0.79,0-1.47,0.32-2.03,0.96c-0.56,0.64-0.84,1.44-0.84,2.4v5.25h-1.48v-9.78h1.22l0.17,1.81h0.07c0.36-0.64,0.8-1.13,1.31-1.47
			S157.81,61.81,158.43,61.81z"/>
		<path class="st0" d="M167.44,71.77l-0.29-1.39h-0.07c-0.49,0.61-0.97,1.03-1.46,1.25c-0.48,0.22-1.09,0.33-1.82,0.33
			c-0.97,0-1.73-0.25-2.28-0.75c-0.55-0.5-0.83-1.21-0.83-2.13c0-1.98,1.58-3.01,4.74-3.11l1.66-0.05V65.3c0-0.77-0.17-1.33-0.5-1.7
			c-0.33-0.37-0.86-0.55-1.58-0.55c-0.82,0-1.74,0.25-2.77,0.75l-0.46-1.13c0.48-0.26,1.01-0.47,1.58-0.62s1.15-0.22,1.73-0.22
			c1.17,0,2.03,0.26,2.59,0.78c0.56,0.52,0.84,1.35,0.84,2.49v6.68H167.44z M164.1,70.73c0.92,0,1.65-0.25,2.17-0.76
			s0.79-1.21,0.79-2.12v-0.88l-1.48,0.06c-1.18,0.04-2.03,0.22-2.55,0.55c-0.52,0.32-0.78,0.83-0.78,1.51
			c0,0.54,0.16,0.94,0.49,1.22C163.06,70.59,163.51,70.73,164.1,70.73z"/>
		<path class="st0" d="M178.29,71.77v-6.33c0-0.8-0.18-1.39-0.54-1.79c-0.36-0.39-0.93-0.59-1.71-0.59c-1.02,0-1.77,0.28-2.25,0.83
			c-0.48,0.55-0.71,1.47-0.71,2.74v5.13h-1.48v-9.78h1.21l0.24,1.34h0.07c0.3-0.48,0.73-0.86,1.28-1.12c0.55-0.26,1.16-0.4,1.83-0.4
			c1.18,0,2.06,0.28,2.66,0.85c0.59,0.57,0.89,1.48,0.89,2.73v6.38H178.29z"/>
		<path class="st0" d="M189.48,70.46h-0.08c-0.68,0.99-1.71,1.49-3.07,1.49c-1.28,0-2.28-0.44-2.99-1.31
			c-0.71-0.88-1.07-2.12-1.07-3.73c0-1.61,0.36-2.87,1.07-3.76c0.71-0.89,1.71-1.34,2.98-1.34c1.33,0,2.34,0.48,3.05,1.45h0.12
			l-0.06-0.71l-0.04-0.69v-3.98h1.48v13.89h-1.21L189.48,70.46z M186.51,70.71c1.01,0,1.75-0.27,2.2-0.83
			c0.46-0.55,0.68-1.44,0.68-2.67V66.9c0-1.39-0.23-2.38-0.69-2.97s-1.2-0.89-2.21-0.89c-0.87,0-1.53,0.34-2,1.01
			s-0.69,1.63-0.69,2.86c0,1.25,0.23,2.19,0.69,2.83C184.95,70.39,185.63,70.71,186.51,70.71z"/>
		<path class="st0" d="M202.47,66.87c0,1.6-0.4,2.84-1.21,3.74c-0.8,0.9-1.91,1.34-3.33,1.34c-0.88,0-1.65-0.21-2.33-0.62
			s-1.2-1-1.57-1.77c-0.37-0.77-0.55-1.67-0.55-2.7c0-1.59,0.4-2.84,1.2-3.73c0.8-0.89,1.91-1.33,3.32-1.33
			c1.37,0,2.46,0.46,3.26,1.37C202.06,64.08,202.47,65.32,202.47,66.87z M195.01,66.87c0,1.25,0.25,2.2,0.75,2.86
			s1.23,0.98,2.21,0.98c0.97,0,1.71-0.33,2.21-0.98s0.75-1.61,0.75-2.86c0-1.24-0.25-2.19-0.75-2.83c-0.5-0.65-1.25-0.97-2.23-0.97
			c-0.97,0-1.7,0.32-2.2,0.96C195.26,64.66,195.01,65.61,195.01,66.87z"/>
		<path class="st0" d="M209.69,59.33c0-0.34,0.08-0.59,0.25-0.75s0.38-0.24,0.62-0.24c0.24,0,0.44,0.08,0.62,0.24
			c0.17,0.16,0.26,0.41,0.26,0.74c0,0.33-0.09,0.58-0.26,0.75c-0.17,0.16-0.38,0.25-0.62,0.25c-0.25,0-0.46-0.08-0.62-0.25
			C209.77,59.92,209.69,59.67,209.69,59.33z M211.3,71.77h-1.48v-9.78h1.48V71.77z"/>
		<path class="st0" d="M221.1,70.46h-0.08c-0.68,0.99-1.71,1.49-3.07,1.49c-1.28,0-2.28-0.44-2.99-1.31
			c-0.71-0.88-1.07-2.12-1.07-3.73c0-1.61,0.36-2.87,1.07-3.76c0.71-0.89,1.71-1.34,2.98-1.34c1.33,0,2.34,0.48,3.05,1.45h0.12
			l-0.06-0.71l-0.04-0.69v-3.98h1.48v13.89h-1.21L221.1,70.46z M218.13,70.71c1.01,0,1.75-0.27,2.2-0.83
			c0.46-0.55,0.68-1.44,0.68-2.67V66.9c0-1.39-0.23-2.38-0.69-2.97s-1.2-0.89-2.21-0.89c-0.87,0-1.53,0.34-2,1.01
			s-0.69,1.63-0.69,2.86c0,1.25,0.23,2.19,0.69,2.83C216.58,70.39,217.25,70.71,218.13,70.71z"/>
		<path class="st0" d="M229.78,71.95c-1.45,0-2.59-0.44-3.42-1.32c-0.84-0.88-1.25-2.1-1.25-3.67c0-1.58,0.39-2.83,1.17-3.76
			c0.78-0.93,1.82-1.39,3.13-1.39c1.23,0,2.2,0.4,2.91,1.21c0.71,0.81,1.07,1.87,1.07,3.19v0.94h-6.74
			c0.03,1.15,0.32,2.02,0.87,2.62s1.33,0.89,2.33,0.89c1.05,0,2.09-0.22,3.12-0.66v1.32c-0.52,0.23-1.02,0.39-1.49,0.49
			C231,71.9,230.44,71.95,229.78,71.95z M229.38,63.05c-0.79,0-1.41,0.26-1.88,0.77c-0.47,0.51-0.74,1.22-0.83,2.12h5.12
			c0-0.93-0.21-1.65-0.62-2.15C230.74,63.3,230.15,63.05,229.38,63.05z"/>
		<path class="st0" d="M235.78,59.33c0-0.34,0.08-0.59,0.25-0.75s0.38-0.24,0.62-0.24c0.24,0,0.44,0.08,0.62,0.24
			c0.17,0.16,0.26,0.41,0.26,0.74c0,0.33-0.09,0.58-0.26,0.75c-0.17,0.16-0.38,0.25-0.62,0.25c-0.25,0-0.46-0.08-0.62-0.25
			C235.86,59.92,235.78,59.67,235.78,59.33z M237.38,71.77h-1.48v-9.78h1.48V71.77z"/>
		<path class="st0" d="M246.54,71.77l-0.29-1.39h-0.07c-0.49,0.61-0.97,1.03-1.46,1.25c-0.49,0.22-1.09,0.33-1.82,0.33
			c-0.97,0-1.73-0.25-2.28-0.75s-0.83-1.21-0.83-2.13c0-1.98,1.58-3.01,4.74-3.11l1.66-0.05V65.3c0-0.77-0.17-1.33-0.5-1.7
			s-0.86-0.55-1.58-0.55c-0.82,0-1.74,0.25-2.77,0.75l-0.46-1.13c0.48-0.26,1.01-0.47,1.58-0.62c0.57-0.15,1.15-0.22,1.73-0.22
			c1.17,0,2.03,0.26,2.59,0.78c0.56,0.52,0.84,1.35,0.84,2.49v6.68H246.54z M243.19,70.73c0.92,0,1.65-0.25,2.17-0.76
			c0.53-0.51,0.79-1.21,0.79-2.12v-0.88l-1.48,0.06c-1.18,0.04-2.03,0.22-2.55,0.55c-0.52,0.32-0.78,0.83-0.78,1.51
			c0,0.54,0.16,0.94,0.49,1.22C242.16,70.59,242.61,70.73,243.19,70.73z"/>
		<path class="st0" d="M257.01,69.1c0,0.91-0.34,1.61-1.02,2.11s-1.63,0.74-2.86,0.74c-1.3,0-2.31-0.21-3.04-0.62v-1.38
			c0.47,0.24,0.97,0.43,1.51,0.56c0.54,0.14,1.06,0.21,1.56,0.21c0.77,0,1.37-0.12,1.79-0.37c0.42-0.25,0.62-0.62,0.62-1.13
			c0-0.38-0.17-0.71-0.5-0.98c-0.33-0.27-0.97-0.59-1.93-0.96c-0.91-0.34-1.56-0.64-1.94-0.89s-0.67-0.54-0.86-0.86
			s-0.28-0.71-0.28-1.15c0-0.8,0.32-1.43,0.97-1.89c0.65-0.46,1.54-0.69,2.67-0.69c1.05,0,2.08,0.21,3.09,0.64l-0.53,1.21
			c-0.98-0.4-1.87-0.61-2.67-0.61c-0.7,0-1.23,0.11-1.59,0.33s-0.54,0.52-0.54,0.91c0,0.26,0.07,0.49,0.2,0.67
			c0.13,0.18,0.35,0.36,0.65,0.53c0.3,0.17,0.87,0.41,1.71,0.72c1.16,0.42,1.95,0.85,2.35,1.28
			C256.8,67.91,257.01,68.45,257.01,69.1z"/>
		<path class="st0" d="M264.04,59.33c0-0.34,0.08-0.59,0.25-0.75s0.38-0.24,0.62-0.24c0.24,0,0.44,0.08,0.62,0.24
			c0.17,0.16,0.26,0.41,0.26,0.74c0,0.33-0.09,0.58-0.26,0.75c-0.17,0.16-0.38,0.25-0.62,0.25c-0.25,0-0.46-0.08-0.62-0.25
			C264.12,59.92,264.04,59.67,264.04,59.33z M265.65,71.77h-1.48v-9.78h1.48V71.77z"/>
		<path class="st0" d="M275.49,71.77v-6.33c0-0.8-0.18-1.39-0.54-1.79c-0.36-0.39-0.93-0.59-1.71-0.59c-1.02,0-1.77,0.28-2.25,0.83
			c-0.48,0.55-0.71,1.47-0.71,2.74v5.13h-1.48v-9.78H270l0.24,1.34h0.07c0.3-0.48,0.73-0.86,1.28-1.12c0.55-0.26,1.16-0.4,1.83-0.4
			c1.18,0,2.06,0.28,2.66,0.85c0.59,0.57,0.89,1.48,0.89,2.73v6.38H275.49z"/>
		<path class="st0" d="M288.46,66.87c0,1.6-0.4,2.84-1.21,3.74c-0.8,0.9-1.91,1.34-3.33,1.34c-0.88,0-1.65-0.21-2.33-0.62
			s-1.2-1-1.57-1.77c-0.37-0.77-0.55-1.67-0.55-2.7c0-1.59,0.4-2.84,1.2-3.73c0.8-0.89,1.91-1.33,3.32-1.33
			c1.37,0,2.46,0.46,3.26,1.37C288.05,64.08,288.46,65.32,288.46,66.87z M281,66.87c0,1.25,0.25,2.2,0.75,2.86s1.23,0.98,2.21,0.98
			c0.97,0,1.71-0.33,2.21-0.98s0.75-1.61,0.75-2.86c0-1.24-0.25-2.19-0.75-2.83c-0.5-0.65-1.25-0.97-2.23-0.97
			c-0.97,0-1.7,0.32-2.2,0.96C281.25,64.66,281,65.61,281,66.87z"/>
		<path class="st0" d="M293.2,71.77l-3.71-9.78h1.59l2.11,5.8c0.48,1.36,0.76,2.24,0.84,2.64h0.07c0.07-0.32,0.27-0.97,0.62-1.96
			c0.35-0.99,1.13-3.15,2.34-6.49h1.59l-3.71,9.78H293.2z"/>
		<path class="st0" d="M306.23,71.77l-0.29-1.39h-0.07c-0.49,0.61-0.97,1.03-1.46,1.25c-0.49,0.22-1.09,0.33-1.82,0.33
			c-0.97,0-1.73-0.25-2.28-0.75s-0.83-1.21-0.83-2.13c0-1.98,1.58-3.01,4.74-3.11l1.66-0.05V65.3c0-0.77-0.17-1.33-0.5-1.7
			s-0.86-0.55-1.58-0.55c-0.82,0-1.74,0.25-2.77,0.75l-0.46-1.13c0.48-0.26,1.01-0.47,1.58-0.62c0.57-0.15,1.15-0.22,1.73-0.22
			c1.17,0,2.03,0.26,2.59,0.78c0.56,0.52,0.84,1.35,0.84,2.49v6.68H306.23z M302.88,70.73c0.92,0,1.65-0.25,2.17-0.76
			c0.53-0.51,0.79-1.21,0.79-2.12v-0.88l-1.48,0.06c-1.18,0.04-2.03,0.22-2.55,0.55c-0.52,0.32-0.78,0.83-0.78,1.51
			c0,0.54,0.16,0.94,0.49,1.22C301.85,70.59,302.3,70.73,302.88,70.73z"/>
		<path class="st0" d="M317.04,70.46h-0.08c-0.68,0.99-1.71,1.49-3.07,1.49c-1.28,0-2.28-0.44-2.99-1.31
			c-0.71-0.88-1.07-2.12-1.07-3.73c0-1.61,0.36-2.87,1.07-3.76c0.71-0.89,1.71-1.34,2.98-1.34c1.33,0,2.34,0.48,3.05,1.45h0.12
			L317,62.55l-0.04-0.69v-3.98h1.48v13.89h-1.21L317.04,70.46z M314.08,70.71c1.01,0,1.75-0.27,2.2-0.83
			c0.46-0.55,0.68-1.44,0.68-2.67V66.9c0-1.39-0.23-2.38-0.69-2.97s-1.2-0.89-2.21-0.89c-0.87,0-1.53,0.34-2,1.01
			s-0.69,1.63-0.69,2.86c0,1.25,0.23,2.19,0.69,2.83C312.52,70.39,313.19,70.71,314.08,70.71z"/>
		<path class="st0" d="M330.03,66.87c0,1.6-0.4,2.84-1.21,3.74c-0.8,0.9-1.91,1.34-3.33,1.34c-0.88,0-1.65-0.21-2.33-0.62
			s-1.2-1-1.57-1.77c-0.37-0.77-0.55-1.67-0.55-2.7c0-1.59,0.4-2.84,1.2-3.73c0.8-0.89,1.91-1.33,3.32-1.33
			c1.37,0,2.46,0.46,3.26,1.37C329.63,64.08,330.03,65.32,330.03,66.87z M322.58,66.87c0,1.25,0.25,2.2,0.75,2.86
			s1.23,0.98,2.21,0.98c0.97,0,1.71-0.33,2.21-0.98s0.75-1.61,0.75-2.86c0-1.24-0.25-2.19-0.75-2.83c-0.5-0.65-1.25-0.97-2.23-0.97
			c-0.97,0-1.7,0.32-2.2,0.96C322.83,64.66,322.58,65.61,322.58,66.87z"/>
		<path class="st0" d="M337.1,61.81c0.43,0,0.82,0.04,1.17,0.11l-0.21,1.37c-0.4-0.09-0.76-0.13-1.07-0.13
			c-0.79,0-1.47,0.32-2.03,0.96c-0.56,0.64-0.84,1.44-0.84,2.4v5.25h-1.48v-9.78h1.22l0.17,1.81h0.07c0.36-0.64,0.8-1.13,1.31-1.47
			S336.48,61.81,337.1,61.81z"/>
		<path class="st0" d="M346.11,71.77l-0.29-1.39h-0.07c-0.49,0.61-0.97,1.03-1.46,1.25c-0.49,0.22-1.09,0.33-1.82,0.33
			c-0.97,0-1.73-0.25-2.28-0.75s-0.83-1.21-0.83-2.13c0-1.98,1.58-3.01,4.74-3.11l1.66-0.05V65.3c0-0.77-0.17-1.33-0.5-1.7
			s-0.86-0.55-1.58-0.55c-0.82,0-1.74,0.25-2.77,0.75l-0.46-1.13c0.48-0.26,1.01-0.47,1.58-0.62c0.57-0.15,1.15-0.22,1.73-0.22
			c1.17,0,2.03,0.26,2.59,0.78c0.56,0.52,0.84,1.35,0.84,2.49v6.68H346.11z M342.77,70.73c0.92,0,1.65-0.25,2.17-0.76
			c0.53-0.51,0.79-1.21,0.79-2.12v-0.88l-1.48,0.06c-1.18,0.04-2.03,0.22-2.55,0.55c-0.52,0.32-0.78,0.83-0.78,1.51
			c0,0.54,0.16,0.94,0.49,1.22C341.73,70.59,342.18,70.73,342.77,70.73z"/>
		<path class="st0" d="M356.58,69.1c0,0.91-0.34,1.61-1.02,2.11s-1.63,0.74-2.86,0.74c-1.3,0-2.31-0.21-3.04-0.62v-1.38
			c0.47,0.24,0.97,0.43,1.51,0.56c0.54,0.14,1.06,0.21,1.56,0.21c0.77,0,1.37-0.12,1.79-0.37c0.42-0.25,0.62-0.62,0.62-1.13
			c0-0.38-0.17-0.71-0.5-0.98c-0.33-0.27-0.97-0.59-1.93-0.96c-0.91-0.34-1.56-0.64-1.94-0.89s-0.67-0.54-0.86-0.86
			s-0.28-0.71-0.28-1.15c0-0.8,0.32-1.43,0.97-1.89c0.65-0.46,1.54-0.69,2.67-0.69c1.05,0,2.08,0.21,3.09,0.64l-0.53,1.21
			c-0.98-0.4-1.87-0.61-2.67-0.61c-0.7,0-1.23,0.11-1.59,0.33s-0.54,0.52-0.54,0.91c0,0.26,0.07,0.49,0.2,0.67
			c0.13,0.18,0.35,0.36,0.65,0.53c0.3,0.17,0.87,0.41,1.71,0.72c1.16,0.42,1.95,0.85,2.35,1.28
			C356.37,67.91,356.58,68.45,356.58,69.1z"/>
	</g>
	<g>
		<g>
			<path class="st1" d="M22.47,2.75l58.82,0c0,0,3.87,0.24,3.87,3.87s0,61.3,0,61.3s-0.17,3.86-3.86,3.86s-15.35,0-15.35,0
				s-3.85-0.29-3.85-3.85c0-3.57,0-16.22,0-16.22s-0.01-3.26-3.26-3.26s-15.95,0-15.95,0s-3.73,0.5-3.73-3.73s0-15.42,0-15.42
				s0.05-3.64-3.64-3.64s-13.05,0-13.05,0s-3.77,0.66-3.77-3.77s0-16.03,0-16.03S19.47,2.75,22.47,2.75z"/>
		</g>
		<g>
			<path class="st1" d="M19.84,64.14H4.25c-2.02,0-3.66,1.64-3.66,3.66v15.71c0,2.02,1.64,3.66,3.66,3.66h15.59
				c2.02,0,3.66-1.64,3.66-3.66V67.81C23.5,65.78,21.86,64.14,19.84,64.14z"/>
		</g>
		<g>
			<path class="st1" d="M27.82,32.94H12.23c-2.02,0-3.66,1.64-3.66,3.66v15.71c0,2.02,1.64,3.66,3.66,3.66h15.59
				c2.02,0,3.66-1.64,3.66-3.66V36.6C31.48,34.58,29.84,32.94,27.82,32.94z"/>
		</g>
		<g>
			<path class="st1" d="M51.1,56.28H35.51c-2.02,0-3.66,1.64-3.66,3.66v15.71c0,2.02,1.64,3.66,3.66,3.66H51.1
				c2.02,0,3.66-1.64,3.66-3.66V59.94C54.76,57.92,53.12,56.28,51.1,56.28z"/>
		</g>
	</g>
</g>
</svg>
